<svg xmlns="http://www.w3.org/2000/svg" viewBox="0 0 512 512" role="img" aria-label="COSMOS Tech">
  <defs>
    <linearGradient id="g" x1="0" y1="0" x2="1" y2="1">
      <stop offset="0" stop-color="#38BDF8"/>
      <stop offset="0.5" stop-color="#A855F7"/>
      <stop offset="1" stop-color="#34D399"/>
    </linearGradient>
    <radialGradient id="rg" cx="40%" cy="30%" r="70%">
      <stop offset="0" stop-color="#ffffff" stop-opacity="0.22"/>
      <stop offset="1" stop-color="#000000" stop-opacity="0"/>
    </radialGradient>
  </defs>
  <rect width="512" height="512" rx="128" fill="#0B1220"/>
  <circle cx="256" cy="256" r="176" fill="url(#g)" opacity="0.95"/>
  <circle cx="256" cy="256" r="176" fill="url(#rg)"/>
  <path d="M112 272c38-96 126-160 236-160 38 0 74 8 108 22-42-8-84-4-122 10-92 34-144 120-168 188-14 40-44 68-86 76 16-8 26-18 32-30z" fill="#0B1220" opacity="0.45"/>
  <path d="M164 300c30 34 74 56 124 56 70 0 130-42 156-102-12 76-78 134-158 134-55 0-105-27-135-68-16-22-20-44-14-70 2 18 10 34 27 50z" fill="#0B1220" opacity="0.35"/>
  <circle cx="352" cy="176" r="10" fill="#ffffff" opacity="0.9"/>
  <circle cx="322" cy="210" r="6" fill="#ffffff" opacity="0.8"/>
  <circle cx="372" cy="220" r="5" fill="#ffffff" opacity="0.8"/>
  <path d="M162 248c28-46 78-76 134-76 42 0 80 16 108 42" fill="none" stroke="#0B1220" stroke-width="22" stroke-linecap="round" opacity="0.5"/>
  <path d="M182 246c24-30 62-50 104-50 32 0 62 10 86 28" fill="none" stroke="#ffffff" stroke-width="8" stroke-linecap="round" opacity="0.55"/>
</svg>
